<?xml version="1.0" encoding="UTF-8" standalone="no"?>
<!-- Created with Inkscape (http://www.inkscape.org/) -->
<svg
   xmlns:dc="http://purl.org/dc/elements/1.1/"
   xmlns:cc="http://creativecommons.org/ns#"
   xmlns:rdf="http://www.w3.org/1999/02/22-rdf-syntax-ns#"
   xmlns:svg="http://www.w3.org/2000/svg"
   xmlns="http://www.w3.org/2000/svg"
   xmlns:sodipodi="http://sodipodi.sourceforge.net/DTD/sodipodi-0.dtd"
   xmlns:inkscape="http://www.inkscape.org/namespaces/inkscape"
   width="210mm"
   height="297mm"
   id="svg2"
   sodipodi:version="0.32"
   inkscape:version="0.46"
   sodipodi:docname="de espaldas (sin terminar).svg"
   inkscape:output_extension="org.inkscape.output.svg.inkscape">
  <defs
     id="defs4">
    <inkscape:perspective
       sodipodi:type="inkscape:persp3d"
       inkscape:vp_x="0 : 526.18109 : 1"
       inkscape:vp_y="0 : 1000 : 0"
       inkscape:vp_z="744.09448 : 526.18109 : 1"
       inkscape:persp3d-origin="372.04724 : 350.78739 : 1"
       id="perspective10" />
    <inkscape:perspective
       id="perspective2687"
       inkscape:persp3d-origin="372.04724 : 350.78739 : 1"
       inkscape:vp_z="955.52305 : 161.89538 : 1"
       inkscape:vp_y="6.1230318e-14 : 1000 : 0"
       inkscape:vp_x="120 : 397.60966 : 1"
       sodipodi:type="inkscape:persp3d" />
    <marker
       style="overflow:visible"
       id="Arrow1Sstart"
       refX="0.0"
       refY="0.0"
       orient="auto"
       inkscape:stockid="Arrow1Sstart">
      <path
         transform="scale(0.2) translate(6,0)"
         style="fill-rule:evenodd;stroke:#000000;stroke-width:1.0pt;marker-start:none"
         d="M 0.0,0.0 L 5.0,-5.0 L -12.5,0.0 L 5.0,5.0 L 0.0,0.0 z "
         id="path3968" />
    </marker>
  </defs>
  <sodipodi:namedview
     id="base"
     pagecolor="#ffffff"
     bordercolor="#666666"
     borderopacity="1.0"
     inkscape:pageopacity="0.0"
     inkscape:pageshadow="2"
     inkscape:zoom="5.6"
     inkscape:cx="138.95986"
     inkscape:cy="965.57456"
     inkscape:document-units="px"
     inkscape:current-layer="layer1"
     showgrid="false"
     showguides="true"
     inkscape:snap-global="true"
     inkscape:window-width="1280"
     inkscape:window-height="955"
     inkscape:window-x="0"
     inkscape:window-y="41">
    <inkscape:grid
       type="xygrid"
       id="grid2650" />
  </sodipodi:namedview>
  <metadata
     id="metadata7">
    <rdf:RDF>
      <cc:Work
         rdf:about="">
        <dc:format>image/svg+xml</dc:format>
        <dc:type
           rdf:resource="http://purl.org/dc/dcmitype/StillImage" />
      </cc:Work>
    </rdf:RDF>
  </metadata>
  <g
     inkscape:label="Capa 1"
     inkscape:groupmode="layer"
     id="layer1">
    <g
       id="g2402"
       transform="matrix(0.3130889,0,0,0.3130889,18.379274,-64.930218)">
      <g
         transform="translate(-2.1428572,2.1428571)"
         id="g2404">
        <path
           style="fill:none;fill-rule:evenodd;stroke:#000000;stroke-width:1;stroke-linecap:butt;stroke-linejoin:miter;stroke-miterlimit:4;stroke-dasharray:none;stroke-opacity:1"
           d="M 251.86527,459.55034 C 231.57637,459.35815 234.56574,479.14676 249.4929,478.90717 C 249.81239,478.84446 250.09221,478.68372 250.38368,478.55175"
           id="path2406"
           sodipodi:nodetypes="ccc" />
        <g
           id="g2408"
           transform="matrix(0.9073759,0,0,0.8554629,17.028724,66.497735)">
          <g
             id="g2410">
            <path
               style="fill:#ececec;fill-opacity:1;fill-rule:evenodd;stroke:#000000;stroke-width:1;stroke-linecap:round;stroke-linejoin:round;stroke-miterlimit:4;stroke-dashoffset:0;stroke-opacity:1"
               d="M 250.69155,426.51688 C 250.69155,468.36684 250.35154,468.85679 210.09856,468.85679 C 169.83736,468.85679 169.50558,468.38031 169.50558,426.51688 C 169.50558,383.4784 169.44733,384.17698 210.09856,384.17698 C 250.31952,384.17698 250.69083,384.52117 250.69083,426.26521"
               id="path2412"
               sodipodi:nodetypes="csssc" />
            <path
               style="fill:none;fill-rule:evenodd;stroke:#ffffff;stroke-width:15.1359539;stroke-linecap:round;stroke-linejoin:round;marker-start:none;marker-mid:none;stroke-miterlimit:4;stroke-dasharray:none;stroke-opacity:1"
               d="M 223.27633,395.50861 C 216.4448,404.95172 207.81796,413.46261 199.22092,421.04046 C 194.26441,431.96711 231.27121,420.34748 218.14207,433.72855 C 211.57767,441.23644 205.22717,448.97729 198.30551,456.09572"
               id="path2414"
               sodipodi:nodetypes="cccc" />
          </g>
          <g
             id="g2416">
            <path
               style="fill:#ececec;fill-opacity:1;fill-rule:evenodd;stroke:#000000;stroke-width:1;stroke-linecap:round;stroke-linejoin:round;stroke-miterlimit:4;stroke-dashoffset:0;stroke-opacity:1"
               d="M 339.61131,426.88168 C 339.61131,468.98124 339.2713,469.47411 299.01832,469.47411 C 258.75711,469.47411 258.42534,468.99479 258.42534,426.88168 C 258.42534,383.58649 258.36709,384.28923 299.01832,384.28923 C 339.23928,384.28923 339.61058,384.63548 339.61058,426.6285"
               id="path2418"
               sodipodi:nodetypes="csssc" />
            <path
               style="fill:none;fill-rule:evenodd;stroke:#ffffff;stroke-width:15.18102551;stroke-linecap:round;stroke-linejoin:round;marker-start:none;marker-mid:none;stroke-miterlimit:4;stroke-dasharray:none;stroke-opacity:1"
               d="M 312.19609,395.68845 C 305.36456,405.18789 296.73771,413.74954 288.14068,421.37259 C 283.18417,432.36441 320.19097,420.67547 307.06183,434.13635 C 300.49743,441.68903 294.14692,449.47605 287.22527,456.63693"
               id="path2420"
               sodipodi:nodetypes="cccc" />
          </g>
          <path
             sodipodi:nodetypes="ccc"
             id="path2422"
             d="M 259.62821,397.70579 C 258.64266,390.34047 248.19163,392.14276 249.12102,397.54784 C 249.17179,397.66143 249.273,397.75707 249.3594,397.85799"
             style="fill:none;fill-rule:evenodd;stroke:#000000;stroke-width:1;stroke-linecap:butt;stroke-linejoin:miter;stroke-miterlimit:4;stroke-dasharray:none;stroke-opacity:1" />
        </g>
      </g>
      <path
         sodipodi:nodetypes="cc"
         id="path2424"
         d="M 319.9808,404.11175 C 326.78237,414.09025 329.54207,428.39275 335.60821,439.43715"
         style="fill:none;fill-rule:evenodd;stroke:#000000;stroke-width:1.02999997;stroke-linecap:round;stroke-linejoin:miter;stroke-miterlimit:4;stroke-dasharray:none;stroke-opacity:1" />
    </g>
    <path
       style="fill:#ffccaa;fill-opacity:1;fill-rule:evenodd;stroke:#000000;stroke-width:0.34078956;stroke-linecap:butt;stroke-linejoin:miter;stroke-miterlimit:4;stroke-dasharray:none;stroke-opacity:1"
       d="M 79.490226,89.677685 C 80.803784,91.856051 86.064222,95.657364 95.723121,95.453587 C 104.19037,95.274954 118.42849,95.38441 121.88136,92.310569 C 126.45496,87.393367 125.15722,55.34472 119.97895,45.115385 C 110.80616,37.492002 90.619669,36.705291 80.368114,43.698689 C 73.551474,49.435358 73.094098,83.242932 79.490226,89.677685 z"
       id="path2396"
       sodipodi:nodetypes="cscccc" />
    <path
       style="fill:#ffccaa;fill-opacity:1;fill-rule:evenodd;stroke:#000000;stroke-width:0.31308889px;stroke-linecap:butt;stroke-linejoin:miter;stroke-opacity:1"
       d="M 82.718623,75.722065 C 82.725173,75.389236 82.387883,74.753966 82.165153,74.456995 C 81.931943,74.146047 81.600743,73.898059 81.295423,73.745394 C 80.961733,73.578552 80.203953,73.642691 79.793153,73.745394 C 79.279543,73.873795 79.014223,74.433516 78.844343,74.773265 C 78.620673,75.220609 78.692983,75.993109 78.765283,76.354602 C 78.910283,77.079615 79.056133,77.597089 79.239683,78.331273 C 79.343003,78.744575 79.634173,79.120817 79.872213,79.438211 C 80.130273,79.782283 80.581283,80.068215 80.821013,80.307944 C 81.087823,80.574752 81.634003,80.530957 82.007023,80.624214 C 82.419533,80.727342 82.693173,80.531743 82.955823,80.466079"
       id="path2400" />
    <path
       style="fill:#aa4400;fill-opacity:1;fill-rule:evenodd;stroke:#000000;stroke-width:0.32522619px;stroke-linecap:butt;stroke-linejoin:miter;stroke-opacity:1"
       d="M 124.45371,81.840641 C 129.13025,81.896662 130.02011,79.522183 128.13995,76.113804 C 132.13679,74.094349 135.11715,68.476479 128.7206,65.677518 C 129.59707,62.845607 136.1559,58.087328 130.17735,51.469903 C 133.38021,48.561805 133.65458,37.719618 126.71112,40.375642 C 130.59542,31.9765 120.0445,30.718978 119.22981,34.284557 C 121.22858,27.031348 110.6175,21.809073 106.93319,29.797708 C 104.7421,20.547553 92.413039,25.22615 92.419529,31.122769 C 89.972016,23.542608 78.294101,32.021269 79.315118,36.917663 C 67.732466,37.180607 70.492364,49.493667 76.830019,50.798782 C 78.232579,45.333323 79.325594,43.405143 84.524495,41.444377 C 94.473395,37.013318 112.15774,38.417521 120.01934,45.245777 C 124.27339,55.82919 125.23145,71.306264 124.45371,81.840641 z"
       id="path2398"
       sodipodi:nodetypes="ccccccccccccc" />
    <path
       style="fill:#ffccaa;fill-opacity:1;fill-rule:evenodd;stroke:#000000;stroke-width:0.31308889px;stroke-linecap:butt;stroke-linejoin:miter;stroke-opacity:1"
       d="M 103.58078,95.25965 C 103.5041,95.566377 103.50569,97.772583 103.50569,98.87919 C 102.87015,98.835479 99.239003,99.120778 98.164216,98.970997 C 98.094337,98.476814 98.148968,96.600751 98.165039,95.427378 C 99.490817,95.333079 102.35301,95.286923 103.58078,95.25965 z"
       id="path3210"
       sodipodi:nodetypes="ccccc" />
    <path
       style="fill:#784421;fill-opacity:1;fill-rule:evenodd;stroke:#000000;stroke-width:0.31308889px;stroke-linecap:butt;stroke-linejoin:miter;stroke-opacity:1"
       d="M 83.812846,127.95752 C 84.200935,130.79833 83.736943,133.67183 83.79546,136.53039 C 92.924387,138.62466 105.98835,136.82804 115.99496,137.16307 C 117.26226,136.94275 116.47862,135.38082 116.65002,134.51048 C 116.525,132.40336 117.42205,130.03565 116.94004,127.94084 C 111.52751,130.6553 93.95285,129.01496 83.812846,127.95752 z"
       id="path3219"
       sodipodi:nodetypes="cccccc" />
    <path
       style="fill:#552200;fill-opacity:1;fill-rule:evenodd;stroke:#000000;stroke-width:0.34267539px;stroke-linecap:butt;stroke-linejoin:miter;stroke-opacity:1"
       d="M 92.120375,141.23642 C 95.567011,141.20989 98.816504,140.99303 100.50626,138.20762 C 101.02372,136.66953 98.884454,137.31176 97.593442,137.19936 C 96.538529,137.05448 91.49627,136.88234 90.40163,136.88234 C 85.354483,136.54899 82.391391,136.45822 81.342365,137.76726 C 79.563826,139.98664 81.583171,140.94045 92.120375,141.23642 z"
       id="path3225"
       sodipodi:nodetypes="ccccsc" />
    <path
       style="fill:#552200;fill-opacity:1;fill-rule:evenodd;stroke:#000000;stroke-width:0.31308889;stroke-linecap:butt;stroke-linejoin:miter;stroke-miterlimit:4;stroke-dasharray:none;stroke-opacity:1"
       d="M 108.1308,141.26887 C 110.58121,141.11186 114.07276,141.93143 115.77228,140.76205 C 116.45842,140.28994 115.89286,138.60023 116.333,137.77305 C 116.7631,136.20829 114.66336,136.96986 113.36807,136.93028 C 112.30668,136.84498 107.26272,136.9568 106.16981,137.01839 C 101.11191,136.96954 98.148393,137.04561 97.174681,138.41161 C 95.523825,140.72753 97.593637,141.56622 108.1308,141.26887 z"
       id="path3227"
       sodipodi:nodetypes="cscccsc" />
    <path
       style="fill:none;fill-rule:evenodd;stroke:#000000;stroke-width:0.31308889px;stroke-linecap:butt;stroke-linejoin:miter;stroke-opacity:1"
       d="M 99.289476,137.89501 L 99.177656,132.19232"
       id="path3229" />
    <g
       id="g2474"
       transform="matrix(-1,0,0,1,200.71428,0)">
      <path
         sodipodi:nodetypes="ccc"
         id="path3231"
         d="M 84.833132,123.75074 C 77.53847,129.15817 87.000267,131.84485 85.37351,130.33848 C 85.757401,130.00705 85.311625,121.98443 84.833132,123.75074 z"
         style="fill:#ffccaa;fill-rule:evenodd;stroke:#000000;stroke-width:0.37884006px;stroke-linecap:butt;stroke-linejoin:miter;stroke-opacity:1" />
      <path
         sodipodi:nodetypes="ccsccc"
         id="path3212"
         d="M 83.772361,124.59629 C 86.666715,116.60399 76.452953,98.550982 101.76981,98.947603 C 108.70718,98.374919 115.06543,102.35585 115.9554,103.47837 C 120.35549,109.02825 117.78561,120.2426 118.04678,128.37193 C 110.97452,131.68019 89.863262,128.82132 86.452214,128.98868 C 84.305333,128.75973 83.243063,127.23306 83.772361,124.59629 z"
         style="fill:#214478;fill-rule:evenodd;stroke:#000000;stroke-width:0.23537971px;stroke-linecap:butt;stroke-linejoin:miter;stroke-opacity:1" />
      <path
         sodipodi:nodetypes="cccc"
         id="path3233"
         d="M 111.3378,107.98383 C 110.72203,114.22038 111.2236,120.54755 111.23782,126.72546 C 113.25658,127.25768 115.64479,127.04148 117.83914,127.35972 C 118.68049,125.65937 119.27029,112.32906 117.87913,108.45907"
         style="fill:#214478;fill-rule:evenodd;stroke:#000000;stroke-width:0.31308889px;stroke-linecap:butt;stroke-linejoin:miter;stroke-opacity:1" />
      <path
         sodipodi:nodetypes="ccc"
         id="path3236"
         d="M 111.46222,127.45673 C 115.73792,140.27953 118.83837,124.99086 117.37437,127.47476 C 117.10758,126.79346 109.92355,126.42011 111.46222,127.45673 z"
         style="fill:#ffccaa;fill-rule:evenodd;stroke:#000000;stroke-width:0.31308889;stroke-linecap:butt;stroke-linejoin:miter;stroke-miterlimit:4;stroke-dasharray:none;stroke-opacity:1" />
    </g>
    <path
       style="fill:#aa4400;fill-opacity:1;fill-rule:evenodd;stroke:#000000;stroke-width:0.32522619px;stroke-linecap:butt;stroke-linejoin:miter;stroke-opacity:1"
       d="M 124.09134,86.755294 C 128.76788,86.811314 130.16282,79.638619 128.28266,76.230239 C 132.2795,74.210779 135.25986,68.592911 128.86331,65.79395 C 129.73978,62.962039 136.29861,58.20376 130.32006,51.586335 C 133.52292,48.678237 133.79729,37.83605 126.85383,40.492074 C 130.73813,32.092932 120.18721,30.83541 119.37252,34.400989 C 121.37129,27.14778 110.76021,21.925505 107.0759,29.91414 C 104.88481,20.663985 92.555749,25.342582 92.562239,31.239201 C 90.114729,23.65904 78.436819,32.137701 79.457829,37.034095 C 67.623839,35.035025 69.312379,54.625849 75.710039,56.471053 C 76.860059,62.36981 83.508916,84.053942 88.707816,82.093182 C 94.616106,94.834712 102.95654,80.202742 110.81814,87.031002 C 119.23907,82.840935 120.3234,84.554678 124.09134,86.755294 z"
       id="path2453"
       sodipodi:nodetypes="ccccccccccccc" />
  </g>
</svg>
