<?xml version="1.0" encoding="UTF-8" standalone="no"?>
<!-- Created with Inkscape (http://www.inkscape.org/) -->
<svg
   xmlns:dc="http://purl.org/dc/elements/1.1/"
   xmlns:cc="http://creativecommons.org/ns#"
   xmlns:rdf="http://www.w3.org/1999/02/22-rdf-syntax-ns#"
   xmlns:svg="http://www.w3.org/2000/svg"
   xmlns="http://www.w3.org/2000/svg"
   xmlns:sodipodi="http://sodipodi.sourceforge.net/DTD/sodipodi-0.dtd"
   xmlns:inkscape="http://www.inkscape.org/namespaces/inkscape"
   width="210mm"
   height="297mm"
   id="svg2"
   sodipodi:version="0.32"
   inkscape:version="0.46"
   sodipodi:docname="estandar tamaño.svg"
   inkscape:output_extension="org.inkscape.output.svg.inkscape">
  <defs
     id="defs4">
    <inkscape:perspective
       sodipodi:type="inkscape:persp3d"
       inkscape:vp_x="0 : 526.18109 : 1"
       inkscape:vp_y="0 : 1000 : 0"
       inkscape:vp_z="744.09448 : 526.18109 : 1"
       inkscape:persp3d-origin="372.04724 : 350.78739 : 1"
       id="perspective10" />
    <inkscape:perspective
       id="perspective2687"
       inkscape:persp3d-origin="372.04724 : 350.78739 : 1"
       inkscape:vp_z="955.52305 : 161.89538 : 1"
       inkscape:vp_y="6.1230318e-14 : 1000 : 0"
       inkscape:vp_x="120 : 397.60966 : 1"
       sodipodi:type="inkscape:persp3d" />
    <marker
       style="overflow:visible"
       id="Arrow1Sstart"
       refX="0.0"
       refY="0.0"
       orient="auto"
       inkscape:stockid="Arrow1Sstart">
      <path
         transform="scale(0.2) translate(6,0)"
         style="fill-rule:evenodd;stroke:#000000;stroke-width:1.0pt;marker-start:none"
         d="M 0.0,0.0 L 5.0,-5.0 L -12.5,0.0 L 5.0,5.0 L 0.0,0.0 z "
         id="path3968" />
    </marker>
  </defs>
  <sodipodi:namedview
     id="base"
     pagecolor="#ffffff"
     bordercolor="#666666"
     borderopacity="1.0"
     inkscape:pageopacity="0.0"
     inkscape:pageshadow="2"
     inkscape:zoom="0.98994949"
     inkscape:cx="366.84506"
     inkscape:cy="769.14997"
     inkscape:document-units="px"
     inkscape:current-layer="layer1"
     showgrid="false"
     showguides="true"
     inkscape:snap-global="true"
     inkscape:window-width="1280"
     inkscape:window-height="955"
     inkscape:window-x="0"
     inkscape:window-y="43">
    <inkscape:grid
       type="xygrid"
       id="grid2650" />
  </sodipodi:namedview>
  <metadata
     id="metadata7">
    <rdf:RDF>
      <cc:Work
         rdf:about="">
        <dc:format>image/svg+xml</dc:format>
        <dc:type
           rdf:resource="http://purl.org/dc/dcmitype/StillImage" />
      </cc:Work>
    </rdf:RDF>
  </metadata>
  <g
     inkscape:label="Capa 1"
     inkscape:groupmode="layer"
     id="layer1">
    <g
       id="g2689"
       inkscape:label="Capa 1"
       transform="matrix(0.3130889,0,0,0.3130889,-55.24226,-65.234172)"
       inkscape:export-xdpi="90"
       inkscape:export-ydpi="90">
      <path
         sodipodi:nodetypes="ccccccccccccc"
         id="path2398"
         d="M 573.94551,469.75416 C 588.8823,469.93309 591.72449,462.34905 585.71929,451.46275 C 598.48512,445.01265 608.00433,427.06928 587.57388,418.12945 C 590.37332,409.08438 611.3221,393.88653 592.22671,372.7506 C 602.45659,363.46219 603.33293,328.83245 581.15563,337.31574 C 593.56203,310.48904 559.86259,306.47254 557.26048,317.86093 C 563.6445,294.69432 529.75291,278.01447 517.98531,303.53002 C 510.98701,273.9852 471.60822,288.92855 471.62895,307.76224 C 463.81164,283.55135 426.5126,310.63203 429.77371,326.27102 C 392.77894,327.11086 401.594,366.43854 421.83635,370.60705 C 426.3161,353.15048 429.80717,346.99191 446.41236,340.72926 C 478.18896,326.57654 534.67243,331.06154 559.78222,352.87086 C 573.36957,386.67408 576.42959,436.10756 573.94551,469.75416 z"
         style="fill:#aa4400;fill-opacity:1;fill-rule:evenodd;stroke:#000000;stroke-width:1.03876626px;stroke-linecap:butt;stroke-linejoin:miter;stroke-opacity:1" />
      <g
         id="g3202">
        <path
           style="fill:#ffccaa;fill-opacity:1;fill-rule:evenodd;stroke:#000000;stroke-width:1.08847535;stroke-linecap:butt;stroke-linejoin:miter;stroke-miterlimit:4;stroke-dasharray:none;stroke-opacity:1"
           d="M 430.333,494.78553 C 434.52848,501.74319 451.33022,513.88451 482.18056,513.23365 C 509.22478,512.6631 554.70108,513.0127 565.72948,503.19491 C 580.33747,487.48946 576.19251,385.12669 559.65322,352.45439 C 530.3555,328.10545 465.88023,325.59271 433.13696,347.92949 C 411.36474,366.2523 409.90389,474.23305 430.333,494.78553 z"
           id="path2396"
           sodipodi:nodetypes="cscccc" />
        <path
           style="fill:#ffccaa;fill-opacity:1;fill-rule:evenodd;stroke:#000000;stroke-width:1px;stroke-linecap:butt;stroke-linejoin:miter;stroke-opacity:1"
           d="M 566.47581,444.96863 C 566.4549,443.90558 567.53219,441.87654 568.24358,440.92802 C 568.98845,439.93486 570.04629,439.14279 571.0215,438.65518 C 572.08728,438.12229 574.50762,438.32715 575.81972,438.65518 C 577.46018,439.06529 578.30761,440.85303 578.85018,441.93818 C 579.56459,443.36699 579.33364,445.83434 579.10272,446.98894 C 578.63958,449.30462 578.17373,450.95742 577.58749,453.30239 C 577.25747,454.62247 576.32749,455.82418 575.56719,456.83793 C 574.74297,457.93689 573.30243,458.85015 572.53673,459.61584 C 571.68455,460.46802 569.94007,460.32814 568.74866,460.626 C 567.43109,460.95539 566.55711,460.33065 565.7182,460.12092"
           id="path2400" />
      </g>
      <g
         transform="translate(235.14578,0.9708235)"
         id="g2402">
        <g
           id="g2404"
           transform="translate(-2.1428572,2.1428571)">
          <path
             sodipodi:nodetypes="ccc"
             id="path2406"
             d="M 251.86527,459.55034 C 231.57637,459.35815 234.56574,479.14676 249.4929,478.90717 C 249.81239,478.84446 250.09221,478.68372 250.38368,478.55175"
             style="fill:none;fill-rule:evenodd;stroke:#000000;stroke-width:1;stroke-linecap:butt;stroke-linejoin:miter;stroke-miterlimit:4;stroke-dasharray:none;stroke-opacity:1" />
          <g
             transform="matrix(0.9073759,0,0,0.8554629,17.028724,66.497735)"
             id="g2408">
            <g
               id="g2410">
              <path
                 sodipodi:nodetypes="csssc"
                 id="path2412"
                 d="M 250.69155,426.51688 C 250.69155,468.36684 250.35154,468.85679 210.09856,468.85679 C 169.83736,468.85679 169.50558,468.38031 169.50558,426.51688 C 169.50558,383.4784 169.44733,384.17698 210.09856,384.17698 C 250.31952,384.17698 250.69083,384.52117 250.69083,426.26521"
                 style="fill:#ececec;fill-opacity:1;fill-rule:evenodd;stroke:#000000;stroke-width:1;stroke-linecap:round;stroke-linejoin:round;stroke-miterlimit:4;stroke-dashoffset:0;stroke-opacity:1" />
              <path
                 sodipodi:nodetypes="cccc"
                 id="path2414"
                 d="M 223.27633,395.50861 C 216.4448,404.95172 207.81796,413.46261 199.22092,421.04046 C 194.26441,431.96711 231.27121,420.34748 218.14207,433.72855 C 211.57767,441.23644 205.22717,448.97729 198.30551,456.09572"
                 style="fill:none;fill-rule:evenodd;stroke:#ffffff;stroke-width:15.1359539;stroke-linecap:round;stroke-linejoin:round;marker-start:none;marker-mid:none;stroke-miterlimit:4;stroke-dasharray:none;stroke-opacity:1" />
            </g>
            <g
               id="g2416">
              <path
                 sodipodi:nodetypes="csssc"
                 id="path2418"
                 d="M 339.61131,426.88168 C 339.61131,468.98124 339.2713,469.47411 299.01832,469.47411 C 258.75711,469.47411 258.42534,468.99479 258.42534,426.88168 C 258.42534,383.58649 258.36709,384.28923 299.01832,384.28923 C 339.23928,384.28923 339.61058,384.63548 339.61058,426.6285"
                 style="fill:#ececec;fill-opacity:1;fill-rule:evenodd;stroke:#000000;stroke-width:1;stroke-linecap:round;stroke-linejoin:round;stroke-miterlimit:4;stroke-dashoffset:0;stroke-opacity:1" />
              <path
                 sodipodi:nodetypes="cccc"
                 id="path2420"
                 d="M 312.19609,395.68845 C 305.36456,405.18789 296.73771,413.74954 288.14068,421.37259 C 283.18417,432.36441 320.19097,420.67547 307.06183,434.13635 C 300.49743,441.68903 294.14692,449.47605 287.22527,456.63693"
                 style="fill:none;fill-rule:evenodd;stroke:#ffffff;stroke-width:15.18102551;stroke-linecap:round;stroke-linejoin:round;marker-start:none;marker-mid:none;stroke-miterlimit:4;stroke-dasharray:none;stroke-opacity:1" />
            </g>
            <path
               style="fill:none;fill-rule:evenodd;stroke:#000000;stroke-width:1;stroke-linecap:butt;stroke-linejoin:miter;stroke-miterlimit:4;stroke-dasharray:none;stroke-opacity:1"
               d="M 259.62821,397.70579 C 258.64266,390.34047 248.19163,392.14276 249.12102,397.54784 C 249.17179,397.66143 249.273,397.75707 249.3594,397.85799"
               id="path2422"
               sodipodi:nodetypes="ccc" />
          </g>
        </g>
        <path
           style="fill:none;fill-rule:evenodd;stroke:#000000;stroke-width:1.02999997;stroke-linecap:round;stroke-linejoin:miter;stroke-miterlimit:4;stroke-dasharray:none;stroke-opacity:1"
           d="M 319.9808,404.11175 C 326.78237,414.09025 329.54207,428.39275 335.60821,439.43715"
           id="path2424"
           sodipodi:nodetypes="cc" />
      </g>
      <path
         sodipodi:nodetypes="ccccc"
         id="path3210"
         d="M 507.27778,512.61422 C 507.03286,513.5939 507.03793,520.64048 507.03793,524.17496 C 505.00805,524.03535 493.41022,524.94659 489.97737,524.46819 C 489.75418,522.88978 489.92867,516.89767 489.98,513.14994 C 494.21451,512.84875 503.35631,512.70133 507.27778,512.61422 z"
         style="fill:#ffccaa;fill-opacity:1;fill-rule:evenodd;stroke:#000000;stroke-width:1px;stroke-linecap:butt;stroke-linejoin:miter;stroke-opacity:1" />
      <path
         sodipodi:nodetypes="ccc"
         id="path3231"
         d="M 447.39814,603.61421 C 424.09913,620.88544 454.31993,629.46665 449.1241,624.65535 C 450.35024,623.59675 448.92644,597.97265 447.39814,603.61421 z"
         style="fill:#ffccaa;fill-rule:evenodd;stroke:#000000;stroke-width:1.21000791px;stroke-linecap:butt;stroke-linejoin:miter;stroke-opacity:1" />
      <path
         sodipodi:nodetypes="ccsccc"
         id="path3212"
         d="M 444.01006,606.31488 C 453.25457,580.78762 420.63201,523.12667 501.49358,524.39347 C 523.6514,522.56433 543.95954,535.27934 546.80206,538.86464 C 560.85588,556.59087 552.64772,592.40928 553.4819,618.37421 C 530.89324,628.94072 463.46428,619.80957 452.56946,620.34409 C 445.71236,619.61283 442.31949,614.73669 444.01006,606.31488 z"
         style="fill:#214478;fill-rule:evenodd;stroke:#000000;stroke-width:0.75179833px;stroke-linecap:butt;stroke-linejoin:miter;stroke-opacity:1" />
      <path
         sodipodi:nodetypes="cccccc"
         id="path3219"
         d="M 447.56149,618.76164 C 448.80104,627.83513 447.31906,637.01304 447.50596,646.14323 C 476.66358,652.8323 518.38962,647.0939 550.35057,648.16398 C 554.3983,647.4603 551.89536,642.47152 552.4428,639.69167 C 552.04348,632.96156 554.90865,625.39914 553.36912,618.70836 C 536.0816,627.37831 479.94847,622.13908 447.56149,618.76164 z"
         style="fill:#784421;fill-opacity:1;fill-rule:evenodd;stroke:#000000;stroke-width:1px;stroke-linecap:butt;stroke-linejoin:miter;stroke-opacity:1" />
      <path
         sodipodi:nodetypes="ccccsc"
         id="path3225"
         d="M 476.94735,662.31493 C 487.95584,662.2302 498.33466,661.53756 503.73171,652.64099 C 505.38447,647.72838 498.55169,649.77965 494.42822,649.42065 C 491.05885,648.95789 474.95397,648.40809 471.45771,648.40809 C 455.33722,647.34338 445.87316,647.05344 442.52259,651.23451 C 436.84197,658.32314 443.29172,661.36961 476.94735,662.31493 z"
         style="fill:#552200;fill-opacity:1;fill-rule:evenodd;stroke:#000000;stroke-width:1.09449863px;stroke-linecap:butt;stroke-linejoin:miter;stroke-opacity:1" />
      <path
         sodipodi:nodetypes="cscccsc"
         id="path3227"
         d="M 527.51399,662.41857 C 535.34054,661.91707 546.49249,664.53479 551.92073,660.79979 C 554.11222,659.2919 552.30584,653.89499 553.71165,651.25299 C 555.08539,646.25518 548.37884,648.68763 544.24171,648.56119 C 540.85164,648.28874 524.74134,648.64591 521.25061,648.84262 C 505.09576,648.68658 495.63037,648.92957 492.52035,653.29253 C 487.24755,660.68954 493.85849,663.3683 527.51399,662.41857 z"
         style="fill:#552200;fill-opacity:1;fill-rule:evenodd;stroke:#000000;stroke-width:1;stroke-linecap:butt;stroke-linejoin:miter;stroke-miterlimit:4;stroke-dasharray:none;stroke-opacity:1" />
      <path
         id="path3229"
         d="M 493.57143,648.79076 L 493.21428,630.57647"
         style="fill:none;fill-rule:evenodd;stroke:#000000;stroke-width:1px;stroke-linecap:butt;stroke-linejoin:miter;stroke-opacity:1" />
      <path
         sodipodi:nodetypes="cccc"
         id="path3233"
         d="M 532.05356,553.25502 C 530.08679,573.17444 531.68878,593.38328 531.73421,613.11541 C 538.18208,614.81532 545.80999,614.12479 552.81871,615.14123 C 555.50595,609.71036 557.38976,567.13358 552.94643,554.7729"
         style="fill:#214478;fill-rule:evenodd;stroke:#000000;stroke-width:1px;stroke-linecap:butt;stroke-linejoin:miter;stroke-opacity:1" />
      <path
         sodipodi:nodetypes="ccc"
         id="path3236"
         d="M 532.45093,615.45109 C 546.10745,656.40685 556.01021,607.57514 551.33423,615.50866 C 550.48212,613.3326 527.53645,612.14013 532.45093,615.45109 z"
         style="fill:#ffccaa;fill-rule:evenodd;stroke:#000000;stroke-width:1;stroke-linecap:butt;stroke-linejoin:miter;stroke-miterlimit:4;stroke-dasharray:none;stroke-opacity:1" />
    </g>
  </g>
</svg>
