<?xml version="1.0" encoding="UTF-8" standalone="no"?>
<!-- Created with Inkscape (http://www.inkscape.org/) -->
<svg
   xmlns:dc="http://purl.org/dc/elements/1.1/"
   xmlns:cc="http://creativecommons.org/ns#"
   xmlns:rdf="http://www.w3.org/1999/02/22-rdf-syntax-ns#"
   xmlns:svg="http://www.w3.org/2000/svg"
   xmlns="http://www.w3.org/2000/svg"
   xmlns:xlink="http://www.w3.org/1999/xlink"
   xmlns:sodipodi="http://sodipodi.sourceforge.net/DTD/sodipodi-0.dtd"
   xmlns:inkscape="http://www.inkscape.org/namespaces/inkscape"
   width="210mm"
   height="297mm"
   id="svg2"
   sodipodi:version="0.32"
   inkscape:version="0.46"
   sodipodi:docname="monigote.svg"
   inkscape:output_extension="org.inkscape.output.svg.inkscape">
  <defs
     id="defs4">
    <inkscape:perspective
       sodipodi:type="inkscape:persp3d"
       inkscape:vp_x="0 : 526.18109 : 1"
       inkscape:vp_y="0 : 1000 : 0"
       inkscape:vp_z="744.09448 : 526.18109 : 1"
       inkscape:persp3d-origin="372.04724 : 350.78739 : 1"
       id="perspective10" />
    <inkscape:perspective
       id="perspective2390"
       inkscape:persp3d-origin="372.04724 : 350.78739 : 1"
       inkscape:vp_z="744.09448 : 526.18109 : 1"
       inkscape:vp_y="0 : 1000 : 0"
       inkscape:vp_x="0 : 526.18109 : 1"
       sodipodi:type="inkscape:persp3d" />
    <inkscape:perspective
       id="perspective3252"
       inkscape:persp3d-origin="372.04724 : 350.78739 : 1"
       inkscape:vp_z="744.09448 : 526.18109 : 1"
       inkscape:vp_y="0 : 1000 : 0"
       inkscape:vp_x="0 : 526.18109 : 1"
       sodipodi:type="inkscape:persp3d" />
    <inkscape:perspective
       id="perspective3274"
       inkscape:persp3d-origin="372.04724 : 350.78739 : 1"
       inkscape:vp_z="744.09448 : 526.18109 : 1"
       inkscape:vp_y="0 : 1000 : 0"
       inkscape:vp_x="0 : 526.18109 : 1"
       sodipodi:type="inkscape:persp3d" />
  </defs>
  <sodipodi:namedview
     id="base"
     pagecolor="#ffffff"
     bordercolor="#666666"
     borderopacity="1.0"
     inkscape:pageopacity="0.0"
     inkscape:pageshadow="2"
     inkscape:zoom="9.7622011"
     inkscape:cx="227.49728"
     inkscape:cy="296.46506"
     inkscape:document-units="px"
     inkscape:current-layer="layer1"
     showgrid="false"
     inkscape:window-width="1680"
     inkscape:window-height="975"
     inkscape:window-x="0"
     inkscape:window-y="25" />
  <metadata
     id="metadata7">
    <rdf:RDF>
      <cc:Work
         rdf:about="">
        <dc:format>image/svg+xml</dc:format>
        <dc:type
           rdf:resource="http://purl.org/dc/dcmitype/StillImage" />
      </cc:Work>
    </rdf:RDF>
  </metadata>
  <g
     inkscape:label="Capa 1"
     inkscape:groupmode="layer"
     id="layer1"
     style="display:inline">
    <path
       transform="matrix(0.5402617,0,0,0.5022033,107.01639,647.66849)"
       style="fill:none;stroke:#000000;stroke-width:0.71992856;stroke-miterlimit:4;stroke-dasharray:none;stroke-opacity:1"
       d="M 184.15625,176.71875 C 182.10059,177.16577 180.24269,178.22945 178.34781,179.10494 C 172.54353,182.07751 167.49138,186.24416 162.21875,190.03125 C 160.63734,191.36616 158.70029,192.56004 158.03492,194.64182 C 156.68081,198.43825 156.94323,202.54533 156.8516,206.51185 C 156.92155,214.28391 157.36523,222.0552 158.21875,229.78125 C 158.57808,233.22832 159.49932,236.72487 161.63607,239.51824 C 164.30911,243.36369 168.0377,246.29985 171.8125,249 C 176.10126,251.52135 181.13363,252.26028 186.02597,252.52692 C 189.58271,252.80251 193.19379,252.68813 196.6812,251.90359 C 199.41254,251.18626 201.86257,249.56359 203.62461,247.36101 C 205.53274,245.18368 207.37579,242.94704 209.42424,240.89717 C 211.57208,238.61838 213.72077,236.08803 214.375,232.9375 C 216.18643,226.20814 216.44415,219.20526 216.96689,212.29263 C 217.30765,206.04384 217.74656,199.78549 217.5696,193.52488 C 217.45187,190.8652 216.13735,188.28652 213.96875,186.71875 C 211.52897,184.83368 208.6959,183.54376 205.95119,182.17055 C 200.66848,179.73339 195.06036,177.96329 189.29549,177.12737 C 187.59368,176.93222 185.87411,176.61172 184.15625,176.71875 z"
       id="path3170" />
    <path
       style="fill:none;fill-rule:evenodd;stroke:#000000;stroke-width:0.375;stroke-linecap:butt;stroke-linejoin:miter;stroke-miterlimit:4;stroke-dasharray:none;stroke-opacity:1"
       d="M 204.53125,774.5 C 204.53374,775.52592 204.61203,776.54793 204.62298,777.57439 C 204.64685,778.44323 204.66332,779.37089 205.15625,780.125 C 205.69275,780.88603 206.60869,781.3052 207.51761,781.39934 C 208.43863,781.48023 209.45012,781.36793 210.2146,780.80485 C 211.13157,780.14898 211.30304,778.92131 211.47216,777.88603 C 211.5894,776.89846 211.73115,775.88667 211.75,774.90625 C 211.78921,774.72074 211.57793,774.59022 211.4375,774.71875 C 210.33659,774.95742 209.21558,774.76195 208.11066,774.66308 C 207.18199,774.57703 206.24199,774.42745 205.3125,774.53125 C 205.04658,774.44727 204.78665,774.29304 204.5,774.3125 L 204.53005,774.49282 L 204.53125,774.5 z"
       id="path3172"
       sodipodi:nodetypes="cccccccsssc" />
    <path
       style="fill:none;fill-rule:evenodd;stroke:#000000;stroke-width:0.375;stroke-linecap:butt;stroke-linejoin:miter;stroke-miterlimit:4;stroke-dasharray:none;stroke-opacity:1"
       d="M 206.09375,778.6875 C 204.34315,778.88982 202.58217,779.01011 200.84375,779.3125 C 199.25094,779.54246 197.67624,779.88583 196.125,780.3125 C 195.19655,780.63887 194.27421,781.22914 193.96875,782.21875 C 193.67167,783.27919 194.02883,784.3656 194.12744,785.42968 C 194.71615,788.86107 195.57836,792.23641 196.27301,795.64629 C 196.48656,796.8085 196.68571,797.99351 196.53214,799.17685 C 196.45751,800.45996 196.25427,801.74531 196.34375,803.03125 C 196.40044,803.9507 196.97301,804.80232 197.81674,805.18129 C 198.634,805.61769 199.59678,805.53188 200.48975,805.47484 C 202.73976,805.29711 204.9745,804.96163 207.2277,804.81326 C 208.21036,804.65851 209.21389,804.83725 210.12689,805.21294 C 211.44785,805.63487 212.74447,806.14105 214.09375,806.46875 C 215.377,806.70715 216.81926,806.49426 217.79288,805.56605 C 218.55718,804.93578 218.79976,803.90909 219.07707,803.00089 C 219.61301,799.89209 219.74859,796.71902 220.46056,793.63932 C 221.06785,790.64669 221.77096,787.67407 222.4363,784.69468 C 222.60347,783.78336 222.76017,782.71663 222.10652,781.94945 C 221.48187,781.11181 220.40726,780.83848 219.46067,780.52557 C 218.11559,780.14485 216.78087,779.71311 215.39008,779.52948 C 212.69305,779.06564 209.96729,778.7055 207.22814,778.65625 C 206.84951,778.64726 206.47191,778.67383 206.09375,778.6875 z"
       id="path3176" />
    <path
       style="fill:none;fill-rule:evenodd;stroke:#000000;stroke-width:0.375;stroke-linecap:butt;stroke-linejoin:miter;stroke-miterlimit:4;stroke-dasharray:none;stroke-opacity:1"
       d="M 195.10491,780.08312 C 193.63592,780.61134 192.10263,781.34146 191.31884,782.68195 C 190.85709,783.56568 190.23345,784.39459 190.0475,785.38007 C 189.07399,790.9993 187.93516,796.59264 186.91653,802.20463 C 186.75478,803.2019 186.61517,804.21634 186.68792,805.22464 C 187.07496,807.16633 187.25773,809.1972 188.25242,810.97711 C 189.02072,812.02557 190.38917,812.56205 191.72028,812.59731 C 192.65061,812.63399 193.61462,812.50489 194.47285,812.15972 C 195.89381,811.56636 196.84845,810.19134 197.01241,808.76459 C 197.15416,807.88299 197.01622,806.91083 196.48168,806.15904 C 195.88152,805.2854 194.8086,804.74111 194.37985,803.75202 C 193.75826,802.62978 193.78569,801.32959 193.89762,800.10416 C 194.00939,798.68356 194.24093,797.26762 194.58101,795.87977 C 195.04951,794.0268 195.70389,792.21968 196.45039,790.44925 C 196.6885,789.40938 197.03326,788.3712 196.95102,787.29561 C 197.00385,785.76756 196.95806,784.23731 197.07618,782.71116 C 197.06518,781.76909 196.87638,780.59112 195.84506,780.15975 C 195.61955,780.06803 195.34686,780.01573 195.10491,780.08312 z"
       id="path3178" />
    <path
       style="fill:none;fill-rule:evenodd;stroke:#000000;stroke-width:0.375;stroke-linecap:butt;stroke-linejoin:miter;stroke-miterlimit:4;stroke-dasharray:none;stroke-opacity:1"
       d="M 198.34375,803.6875 C 197.37249,804.41174 196.88314,805.64726 196.89409,806.83865 C 196.90784,807.75095 196.70426,808.64961 196.75,809.5625 C 196.65165,810.62527 197.80883,811.27187 198.75,811.1875 C 199.7149,811.00145 200.6994,810.89816 201.6875,810.9375 C 204.10378,811.33746 206.55406,811.49272 208.99523,811.66155 C 210.60958,811.75067 212.2243,811.68413 213.83901,811.6604 C 214.80449,811.61373 215.80586,811.84235 216.75,811.625 C 217.5359,811.36403 218.03115,810.46169 217.84375,809.65625 C 217.57793,808.66106 217.52869,807.58127 217.44767,806.54573 C 217.56002,805.48921 216.61259,804.52981 215.56815,804.54385 C 213.42165,804.32227 211.25977,804.30484 209.1069,804.16574 C 205.58173,803.98457 202.05649,803.80476 198.53125,803.625 L 198.35782,803.68281 L 198.34375,803.6875 z"
       id="path3184" />
    <path
       style="fill:none;fill-rule:evenodd;stroke:#000000;stroke-width:0.38927507;stroke-linecap:butt;stroke-linejoin:miter;stroke-miterlimit:4;stroke-dasharray:none;stroke-opacity:1"
       d="M 201.7474,806.38479 C 200.58681,806.82081 199.43247,807.36154 198.53145,808.28849 C 197.24178,809.61932 196.43028,811.37165 195.50957,812.99767 C 194.41285,815.08726 193.32711,817.18907 192.37249,819.35902 C 191.67281,821.09289 190.83165,822.75797 190.24253,824.54316 C 189.76798,825.86195 189.41694,827.22971 189.06944,828.59297 C 188.88094,829.69601 188.58777,830.86999 189.10067,831.92925 C 189.55107,832.95422 190.46423,833.58756 191.42966,833.94265 C 192.6759,834.39447 194.00457,834.43042 195.29796,834.61669 C 197.88318,834.87196 200.46274,835.24765 203.05891,835.33293 C 204.12101,835.24282 205.15765,834.49579 205.49458,833.37834 C 205.9056,832.47359 205.95764,831.44651 206.02139,830.45767 C 206.36563,825.91723 206.55292,821.36352 206.99345,816.83173 C 207.15737,815.70698 207.3882,814.59807 207.64921,813.49545 C 207.82629,812.12206 207.8595,810.69143 207.45077,809.36079 C 207.31155,808.25105 206.70266,807.0099 205.53073,806.98882 C 204.48654,806.71404 203.43268,806.41026 202.35553,806.35371 C 202.15174,806.33953 201.94922,806.35425 201.7474,806.38479 z"
       id="path3188"
       sodipodi:nodetypes="cccccccccccccc" />
    <path
       style="fill:none;fill-rule:evenodd;stroke:#000000;stroke-width:0.38583341;stroke-linecap:butt;stroke-linejoin:miter;stroke-miterlimit:4;stroke-dasharray:none;stroke-opacity:1"
       d="M 210.41017,807.00727 C 209.31837,807.23637 208.88215,808.42162 208.38005,809.32428 C 207.92677,810.33404 207.75199,811.44684 207.73802,812.55772 C 207.67703,814.00035 208.12731,815.39245 208.27396,816.81668 C 208.67283,821.09096 209.03162,825.37066 209.46974,829.64057 C 209.70142,830.91116 209.50815,832.32626 210.22716,833.45217 C 210.72793,834.2196 211.49909,834.81095 212.37781,834.97692 C 213.87808,835.48634 215.46335,835.12762 216.99471,835.02477 C 219.53113,834.80553 222.04777,834.35397 224.52726,833.75222 C 225.52825,833.54121 226.6251,832.98497 226.96336,831.88213 C 227.22904,830.94891 226.94633,829.9343 226.50732,829.10922 C 223.76666,823.03833 220.95404,817.00405 218.06213,811.01239 C 217.42192,809.83072 216.43408,808.86455 215.28244,808.26507 C 213.75648,807.67814 212.21031,807.02541 210.56633,806.97417 L 210.41017,807.00727 z"
       id="path3190"
       sodipodi:nodetypes="ccccccccccccc" />
    <image
       y="721.18848"
       x="271.3042"
       id="image3254"
       height="119"
       width="1178"
       sodipodi:absref="/home/leandro/Escritorio/Pantallazo.png"
       xlink:href="Pantallazo.png" />
    <path
       style="fill:none;stroke:#000000;stroke-width:0.375;stroke-miterlimit:4;stroke-dasharray:none;stroke-opacity:1"
       d="M 190.09375,832.96875 C 188.98281,833.41967 188.27915,834.44832 187.4375,835.25 C 186.77473,835.98263 186.00328,836.63515 185.125,837.09375 C 184.49731,837.53093 183.76393,838.22786 183.90625,839.0625 C 184.34857,840.09994 185.65075,840.08459 186.57252,840.40479 C 187.75636,840.68052 188.97899,840.76205 190.1875,840.875 C 192.51245,840.96323 194.82894,840.6547 197.14579,840.50321 C 198.96436,840.43316 200.7647,840.14439 202.57335,839.95383 C 203.47859,839.93141 204.42748,839.60674 204.9375,838.8125 C 205.65342,837.80849 205.42718,836.32913 204.59837,835.45617 C 203.85659,834.69102 202.74152,834.46068 201.73448,834.24471 C 199.49335,833.77805 197.20352,833.63261 194.93773,833.32943 C 193.38835,833.16128 191.83861,832.98175 190.28125,832.90625 L 190.10782,832.96406 L 190.09375,832.96875 z"
       id="path3258" />
    <path
       style="fill:none;stroke:#000000;stroke-width:0.375;stroke-miterlimit:4;stroke-dasharray:none;stroke-opacity:1"
       d="M 226.03479,832.94172 C 227.14573,833.39264 227.84939,834.42129 228.69104,835.22297 C 229.35381,835.9556 230.12526,836.60812 231.00354,837.06672 C 231.63123,837.5039 232.36461,838.20083 232.22229,839.03547 C 231.77997,840.07291 230.47779,840.05756 229.55602,840.37776 C 228.37218,840.65349 227.14955,840.73502 225.94104,840.84797 C 223.61609,840.9362 221.2996,840.62767 218.98275,840.47618 C 217.16418,840.40613 215.36384,840.11736 213.55519,839.9268 C 212.64995,839.90438 211.70106,839.57971 211.19104,838.78547 C 210.47512,837.78146 210.70136,836.3021 211.53017,835.42914 C 212.27195,834.66399 213.38702,834.43365 214.39406,834.21768 C 216.63519,833.75102 218.92502,833.60558 221.19081,833.3024 C 222.74019,833.13425 224.28993,832.95472 225.84729,832.87922 L 226.02072,832.93703 L 226.03479,832.94172 z"
       id="path3280" />
    <path
       style="fill:none;fill-rule:evenodd;stroke:#000000;stroke-width:0.375;stroke-linecap:butt;stroke-linejoin:miter;stroke-miterlimit:4;stroke-dasharray:none;stroke-opacity:1"
       d="M 220.92009,780.94021 C 222.38909,781.46843 223.92238,782.19855 224.70618,783.53904 C 225.16793,784.42277 225.79155,785.25168 225.97751,786.23716 C 226.95101,791.85639 228.08985,797.44973 229.10849,803.06171 C 229.27022,804.05898 229.40984,805.07344 229.33709,806.08172 C 228.95006,808.02342 228.76728,810.05429 227.77259,811.8342 C 227.00429,812.88266 225.63583,813.41914 224.30473,813.4544 C 223.3744,813.49109 222.4104,813.36198 221.55216,813.01682 C 220.1312,812.42345 219.17656,811.04843 219.01261,809.62168 C 218.87085,808.74008 219.00879,807.76792 219.54333,807.01614 C 220.14349,806.14249 221.21641,805.5982 221.64516,804.60911 C 222.26675,803.48687 222.23932,802.18668 222.12739,800.96125 C 222.01562,799.54065 221.78409,798.12471 221.444,796.73686 C 220.97549,794.88389 220.32113,793.07677 219.57462,791.30634 C 219.33651,790.26647 218.99175,789.22828 219.07399,788.1527 C 219.02116,786.62465 219.06695,785.0944 218.94883,783.56824 C 218.95983,782.62619 219.14863,781.4482 220.17995,781.01684 C 220.40546,780.92512 220.67815,780.87281 220.92009,780.94021 z"
       id="path3285" />
    <path
       style="fill:none;stroke:#000000;stroke-width:0.43318874;stroke-miterlimit:4;stroke-dasharray:none;stroke-opacity:1"
       d="M 200.29937,753.14499 C 199.44939,753.58572 198.542,753.82642 197.71099,754.31501 C 196.94792,754.86569 196.61133,756.37501 197.25425,757.27321 C 197.73749,758.19916 198.52947,758.76441 199.34356,758.98834 C 200.32407,759.21106 201.28249,759.58325 202.2633,759.80722 C 203.05896,760.05733 203.89064,760.26832 204.68378,759.88435 C 205.5552,759.63521 206.1767,758.63014 206.34,757.48667 C 206.48979,756.45402 206.28077,755.36831 205.81921,754.52395 C 205.18795,753.37798 204.08713,753.08926 203.09443,752.9577 C 202.16769,752.83152 201.18847,752.69097 200.29937,753.14499 z"
       id="path3287" />
    <path
       style="fill:none;fill-rule:evenodd;stroke:#000000;stroke-width:0.43318874;stroke-linecap:butt;stroke-linejoin:miter;stroke-miterlimit:4;stroke-dasharray:none;stroke-opacity:1"
       d="M 202.63829,748.63201 C 200.94154,748.90021 199.24709,749.19222 197.55506,749.50953 C 196.70265,749.84383 195.85025,750.17813 194.99785,750.51241 C 195.98915,750.49022 196.99453,750.297 197.97732,750.55101 C 199.42671,750.42195 200.87678,750.27305 202.32643,750.13634 C 204.02085,751.33422 205.71526,752.53212 207.40967,753.73 C 206.58845,752.14211 205.76724,750.5542 204.94602,748.96631 C 204.20333,748.64177 203.41563,748.53041 202.63829,748.63201 z"
       id="path3292"
       sodipodi:nodetypes="ccsccccccc" />
    <path
       style="fill:none;stroke:#000000;stroke-width:0.375;stroke-miterlimit:4;stroke-dasharray:none;stroke-opacity:1"
       d="M 204.5625 732.34375 C 203.4675 732.49405 202.4166 732.91012 201.4051 733.34773 C 200.41872 733.80952 199.38474 734.18937 198.47201 734.79114 C 197.65987 735.31641 196.87321 735.90322 196.21788 736.61811 C 195.44182 737.41329 194.75149 738.28593 194.0625 739.15625 C 193.46498 739.98554 192.85348 740.81369 192.39144 741.72816 C 191.96087 742.65946 191.50157 743.5791 191.15214 744.54524 C 190.77162 745.50689 190.37167 746.46981 190.18423 747.49202 C 189.97321 748.50848 189.92884 749.56118 190.03125 750.59375 C 190.11151 751.70046 190.3793 752.78072 190.48415 753.88332 C 190.81891 755.95902 191.21027 758.02619 191.59375 760.09375 C 191.75728 760.5164 191.98352 760.9743 192.40625 761.1875 C 192.72531 760.67147 192.58482 759.99703 192.96875 759.5 C 193.38473 758.62252 194.08604 757.82606 194.16772 756.82439 C 194.25889 755.73187 194.49276 754.66147 194.6958 753.58616 C 194.9222 752.39077 195.1486 751.19539 195.375 750 C 195.67138 749.07745 195.97257 748.10091 196.6875 747.40625 C 197.31234 746.58523 198.19778 746.02237 199.02791 745.43107 C 199.97741 744.79453 200.97719 744.22315 202.02623 743.76864 C 202.94491 743.4296 203.81682 742.95127 204.78125 742.75 C 205.75861 742.55582 206.75768 742.45408 207.75 742.59375 C 208.73965 742.71275 209.7233 742.88585 210.7008 743.07867 C 212.77327 743.50341 214.80525 744.09584 216.84375 744.65625 C 217.99473 745.06498 219.21144 745.37326 220.21875 746.09375 C 220.95091 746.713 221.36937 747.61105 221.74218 748.47498 C 222.15642 749.36708 222.48995 750.29469 222.67542 751.26263 C 222.93585 752.29147 223.10582 753.34112 223.22184 754.39525 C 223.41848 756.39548 223.56122 758.40049 223.6875 760.40625 C 223.72302 760.46986 223.75174 760.99847 223.84375 760.59375 C 224.31049 759.14685 224.73909 757.68773 225.24963 756.25524 C 225.62955 755.24773 225.90591 754.20554 226.06011 753.13936 C 226.20164 752.19295 226.02169 751.24528 225.89659 750.30737 C 225.64519 748.88116 225.4085 747.45161 225.125 746.03125 C 224.84937 744.98913 224.57671 743.94478 224.19413 742.93546 C 223.80178 741.75029 223.30724 740.59637 222.66541 739.52384 C 222.1923 738.65459 221.48691 737.94561 220.75799 737.28835 C 219.99435 736.61634 219.19258 735.98137 218.3126 735.46745 C 217.51218 734.93552 216.62674 734.55584 215.71875 734.25 C 213.36668 733.64048 211.00634 733.04922 208.60735 732.65313 C 207.61357 732.48077 206.59874 732.46189 205.59859 732.33644 C 205.25415 732.33591 204.90377 732.27387 204.5625 732.34375 z "
       id="path3294" />
    <path
       style="fill:none;stroke:#000000;stroke-width:0.43318874;stroke-miterlimit:4;stroke-dasharray:none;stroke-opacity:1"
       d="M 217.82563,753.80785 C 218.67561,754.24859 219.583,754.48928 220.41401,754.97788 C 221.17708,755.52856 221.51367,757.03788 220.87075,757.93607 C 220.38751,758.86203 219.59553,759.42727 218.78144,759.65122 C 217.80093,759.87392 216.84251,760.24611 215.8617,760.47009 C 215.06604,760.7202 214.23436,760.93119 213.44122,760.54721 C 212.5698,760.29807 211.9483,759.29301 211.785,758.14954 C 211.63521,757.11688 211.84423,756.03118 212.30579,755.18682 C 212.93705,754.04084 214.03787,753.75213 215.03057,753.62057 C 215.95731,753.4944 216.93653,753.35383 217.82563,753.80785 z"
       id="path3312" />
    <path
       style="fill:none;fill-rule:evenodd;stroke:#000000;stroke-width:0.43318874;stroke-linecap:butt;stroke-linejoin:miter;stroke-miterlimit:4;stroke-dasharray:none;stroke-opacity:1"
       d="M 215.48671,749.29488 C 217.18346,749.56308 218.87791,749.85509 220.56994,750.1724 C 221.42235,750.50669 222.27475,750.84099 223.12715,751.17529 C 222.13585,751.15309 221.13047,750.95986 220.14768,751.21388 C 218.69829,751.08481 217.24822,750.93591 215.79857,750.7992 C 214.10415,751.99709 212.40974,753.19498 210.71533,754.39286 C 211.53655,752.80497 212.35776,751.21707 213.17898,749.62917 C 213.92167,749.30464 214.70937,749.19328 215.48671,749.29488 z"
       id="path3314"
       sodipodi:nodetypes="ccsccccccc" />
    <path
       style="fill:none;fill-rule:evenodd;stroke:#000000;stroke-width:0.375;stroke-linecap:butt;stroke-linejoin:miter;stroke-miterlimit:4;stroke-dasharray:none;stroke-opacity:1"
       d="M 209.3036,760.0177 C 209.84369,760.14696 210.27435,760.54105 210.81609,760.66865 C 211.21398,760.81999 211.4048,761.22334 211.63656,761.54955 C 212.03918,762.18186 212.35666,762.93376 212.24831,763.69734 C 212.16601,763.97875 212.09403,764.32233 211.80782,764.46708 C 211.6836,764.53754 211.54752,764.58457 211.42493,764.65811"
       id="path3325" />
    <path
       style="fill:none;fill-rule:evenodd;stroke:#000000;stroke-width:0.375;stroke-linecap:butt;stroke-linejoin:miter;stroke-opacity:1;stroke-miterlimit:4;stroke-dasharray:none"
       d="M 192.16509,756.40041 C 191.76222,756.31219 191.14562,756.5842 190.644,756.83501 C 190.3201,756.99696 190.13951,757.62161 190.06453,757.92151 C 189.84642,759.92304 191.07415,761.0495 192.30996,761.54317"
       id="path3331"
       sodipodi:nodetypes="cscc" />
    <path
       style="fill:none;fill-rule:evenodd;stroke:#000000;stroke-width:0.375;stroke-linecap:butt;stroke-linejoin:miter;stroke-miterlimit:4;stroke-dasharray:none;stroke-opacity:1"
       d="M 223.45621,756.76258 C 224.32352,757.1553 225.48944,757.55221 225.5517,758.32529 C 225.6541,760.21315 224.89158,761.36133 223.45621,762.33993"
       id="path3333"
       sodipodi:nodetypes="ccc" />
  </g>
</svg>
